<?xml version="1.0" encoding="UTF-8" standalone="no"?>
<svg
   xmlns:dc="http://purl.org/dc/elements/1.1/"
   xmlns:cc="http://creativecommons.org/ns#"
   xmlns:rdf="http://www.w3.org/1999/02/22-rdf-syntax-ns#"
   xmlns:svg="http://www.w3.org/2000/svg"
   xmlns="http://www.w3.org/2000/svg"
   xmlns:sodipodi="http://sodipodi.sourceforge.net/DTD/sodipodi-0.dtd"
   xmlns:inkscape="http://www.inkscape.org/namespaces/inkscape"
   width="32.4821in"
   height="23.5526in"
   viewBox="0 0 2339 1696"
   id="svg2"
   version="1.1"
   inkscape:version="0.48.3.1 r9886"
   sodipodi:docname="Primera_practica">
  <title
     id="title3781">Primera práctica</title>
  <metadata
     id="metadata9">
    <rdf:RDF>
      <cc:Work
         rdf:about="">
        <dc:format>image/svg+xml</dc:format>
        <dc:type
           rdf:resource="http://purl.org/dc/dcmitype/StillImage" />
        <dc:title>Primera práctica</dc:title>
        <dc:date>15/10/2012</dc:date>
        <dc:creator>
          <cc:Agent>
            <dc:title>Iñaki García</dc:title>
          </cc:Agent>
        </dc:creator>
        <cc:license
           rdf:resource="http://creativecommons.org/licenses/publicdomain/" />
      </cc:Work>
      <cc:License
         rdf:about="http://creativecommons.org/licenses/publicdomain/">
        <cc:permits
           rdf:resource="http://creativecommons.org/ns#Reproduction" />
        <cc:permits
           rdf:resource="http://creativecommons.org/ns#Distribution" />
        <cc:permits
           rdf:resource="http://creativecommons.org/ns#DerivativeWorks" />
      </cc:License>
    </rdf:RDF>
  </metadata>
  <defs
     id="defs7" />
  <sodipodi:namedview
     pagecolor="#ffffff"
     bordercolor="#666666"
     borderopacity="1"
     objecttolerance="10"
     gridtolerance="10"
     guidetolerance="10"
     inkscape:pageopacity="0"
     inkscape:pageshadow="2"
     inkscape:window-width="1920"
     inkscape:window-height="1021"
     id="namedview5"
     showgrid="false"
     inkscape:zoom="0.34"
     inkscape:cx="999.60501"
     inkscape:cy="1059.8671"
     inkscape:window-x="0"
     inkscape:window-y="27"
     inkscape:window-maximized="1"
     inkscape:current-layer="svg2" />
  <path
     id="Selección"
     d="m 680.20052,242.59727 c 0,0 31.6737,-34.40822 31.6737,-34.40822 10.7028,-12.47751 20.1741,-26.33135 32.3799,-37.48686 0,0 11.6264,-8.3123 11.6264,-8.3123 0,0 30.7863,-24.95502 30.7863,-24.95502 19.993,-14.3428 41.308,-28.54072 65.1946,-35.65779 25.1904,-7.497378 82.3262,-5.813185 110.4685,-5.867514 14.379,-0.03622 29.2108,-5.269892 43.46298,-8.131208 0,0 21.7315,-2.064494 21.7315,-2.064494 0,0 41.6521,-11.843676 41.6521,-11.843676 0,0 12.6767,-2.806987 12.6767,-2.806987 6.7006,-1.955837 8.095,-4.074659 12.6767,-5.994276 0,0 28.9754,-6.863537 28.9754,-6.863537 13.9263,-1.376329 13.4554,5.414769 38.0301,8.728825 -3.0243,5.070687 -17.8017,15.121513 -23.5605,16.805705 0,0 -14.4696,2.155042 -14.4696,2.155042 0,0 -12.6767,4.128987 -12.6767,4.128987 0,0 -30.7863,7.388715 -30.7863,7.388715 -8.2399,2.788878 -11.2642,1.231453 -18.1096,7.551698 27.6895,0 27.9612,-5.758848 50.7068,-8.855589 14.9767,-2.028274 21.4056,-1.973945 36.2192,-2.010165 9.1997,-0.01811 36.3822,-5.740741 45.274,-8.620167 0,0 12.6767,-5.016358 12.6767,-5.016358 0,0 14.4877,-1.865288 14.4877,-1.865288 9.5981,-2.499124 21.8402,-13.745183 41.6521,-15.121513 11.8074,-0.833041 24.9369,3.13296 36.2192,6.754879 0,0 10.8657,3.477043 10.8657,3.477043 0,0 10.8658,0.977918 10.8658,0.977918 0,0 10.8657,2.897536 10.8657,2.897536 0,0 14.4877,1.068466 14.4877,1.068466 0,0 16.2986,5.704522 16.2986,5.704522 0,0 16.2987,1.539316 16.2987,1.539316 0,0 12.6767,4.491179 12.6767,4.491179 0,0 12.6767,3.13296 12.6767,3.13296 0,0 12.6767,5.939948 12.6767,5.939948 0,0 25.3535,9.416993 25.3535,9.416993 7.5698,2.71644 8.7469,0.74249 19.9205,4.96203 21.6591,8.18553 41.6702,20.60872 61.5726,32.21697 0,0 15.7916,7.66035 15.7916,7.66035 0,0 18.6166,11.898 18.6166,11.898 0,0 19.9206,10.14138 19.9206,10.14138 0,0 19.9206,11.46337 19.9206,11.46337 0,0 19.9205,7.37061 19.9205,7.37061 0,0 14.4877,9.74296 14.4877,9.74296 0,0 38.0301,24.04954 38.0301,24.04954 0,0 12.6768,7.85956 12.6768,7.85956 0,0 23.5424,21.69528 23.5424,21.69528 9.5619,7.37061 16.842,8.69261 20.9166,11.64447 0,0 9.9603,9.57998 9.9603,9.57998 0,0 36.1286,24.42984 36.1286,24.42984 0,0 14.4877,11.73502 14.4877,11.73502 8.6564,5.50532 22.4559,9.57998 23.4338,21.47798 0.3803,4.56362 0.6157,12.93025 -5.5958,13.47354 -4.4912,0.39841 -10.5398,-4.18332 -14.2161,-6.51945 0,0 -27.1644,-17.11357 -27.1644,-17.11357 -7.6422,-3.87546 -13.8538,-1.57554 -25.3534,-4.36441 9.1272,9.56186 17.4033,18.85208 23.3252,30.78631 0,0 16.86,41.65207 16.86,41.65207 0,0 12.061,25.04557 12.061,25.04557 0,0 5.2337,9.52564 5.2337,9.52564 0,0 13.8357,41.48909 13.8357,41.48909 3.9117,12.96647 4.5998,28.79425 5.6502,32.59727 1.8109,6.66433 6.4108,11.08307 8.6745,19.92055 1.7385,6.75488 0.833,10.28625 1.5212,16.29864 0,0 3.2778,14.48767 3.2778,14.48767 0,0 0,34.40824 0,34.40824 0.072,20.51817 -3.6219,15.28449 -5.4329,27.16439 0,0 0,14.48767 0,14.48767 0,0 -9.4894,28.97536 -9.4894,28.97536 0,0 -7.0084,27.16439 -7.0084,27.16439 -5.6321,11.1374 -17.5482,19.84812 -26.8565,27.63524 -8.7651,7.33439 -8.8556,9.88784 -19.9206,15.82779 0,0 1.811,7.24384 1.811,7.24384 -21.3875,15.13962 -42.7568,26.27702 -57.6972,48.8959 -5.2337,7.95012 -4.2195,14.79554 -7.7328,23.54248 -4.962,12.36885 -13.9444,23.36137 -23.307,32.59727 -15.9727,15.71913 -14.1799,8.98236 -27.1644,16.2262 0,0 -21.7316,14.59633 -21.7316,14.59633 0,0 -36.2373,26.49434 -36.2373,26.49434 0,0 -28.9572,14.74121 -28.9572,14.74121 0,0 -16.2986,6.13915 -16.2986,6.13915 0,0 -21.7315,10.44924 -21.7315,10.44924 0,0 -10.8658,1.44876 -10.8658,1.44876 -4.7085,1.34011 -7.606,4.61795 -12.6767,6.93598 0,0 -19.9205,6.59189 -19.9205,6.59189 0,0 -54.3288,5.21557 -54.3288,5.21557 0,0 -106.8466,0 -106.8466,0 -8.6383,-0.16299 -19.7576,1.97394 -27.1644,0 -20.9891,-4.07466 -20.7355,-7.82335 -36.2192,-17.18601 0,0 -23.5425,-11.37283 -23.5425,-11.37283 -61.5183,-27.05573 -105.5971,-75.22725 -141.273,-130.9867 0,0 -29.084,-47.08495 -29.084,-47.08495 -3.9297,-7.95011 -1.5393,-10.41301 -4.2195,-16.29863 -3.0967,-6.84543 -11.1736,-12.71294 -14.7231,-21.73152 -3.9117,-9.94216 -5.5415,-30.69576 -6.5919,-41.65206 0,0 -3.314,-34.40824 -3.314,-34.40824 0,0 0,-76.0603 0,-76.0603 0.036,-17.43954 2.1912,-12.85781 3.6219,-23.54247 0,0 0,-18.10959 0,-18.10959 0,0 3.151,-12.67672 3.151,-12.67672 1.5937,-9.70674 -0.9598,-18.39935 2.9519,-32.59727 0,0 10.3949,-25.35344 10.3949,-25.35344 0,0 4.0566,-16.29863 4.0566,-16.29863 4.4549,-11.06496 28.921,-51.41314 36.7081,-59.50813 6.936,-7.20762 8.8375,-4.11088 16.2262,-11.37283 0,0 31.7099,-35.04206 31.7099,-35.04206 24.6472,-21.11579 25.4802,-14.05305 50.5439,-23.56059 10.0689,-3.83923 5.8856,-5.25178 27.1644,-10.88386 9.7429,-2.08261 30.2249,-2.35425 39.8411,0 9.5075,1.61175 5.8675,4.43685 21.7315,4.5455 0,0 30.7863,0 30.7863,0 13.2019,0.21732 11.6445,2.8251 21.7315,4.83527 0,0 12.6767,1.97394 12.6767,1.97394 21.478,5.54154 42.8111,18.74343 57.7878,34.84286 12.0066,12.91214 10.3405,15.15773 17.9466,28.97536 1.9196,3.11485 5.3604,9.27211 0,11.08307 -4.455,1.41255 -8.0407,-2.96998 -10.5398,-5.75885 -12.7492,-14.21604 -10.8295,-11.06497 -27.1644,-19.68513 -25.3534,-13.4011 -18.2001,-7.56981 -41.6521,-15.24828 0,0 -32.5972,-10.23192 -32.5972,-10.23192 0,0 -27.1644,0 -27.1644,0 -16.3168,0.1992 -34.9153,2.91564 -48.8959,11.80745 0,0 -12.6768,9.48943 -12.6768,9.48943 0,0 -19.9205,12.58617 -19.9205,12.58617 -11.8618,8.6926 -22.2024,20.80792 -32.7603,31.00363 0,0 -13.7995,13.00269 -13.7995,13.00269 0,0 -13.5097,15.73723 -13.5097,15.73723 -5.6865,5.01636 -9.1997,4.41874 -14.2523,11.51771 -10.2138,14.36091 -6.8273,17.62063 -9.0005,27.05573 -2.4629,10.66655 -5.3785,5.07069 -5.4147,25.35343 0,0 0,54.32879 0,54.32879 0.054,29.21078 11.9885,56.82791 17.8922,85.1151 3.9479,18.90642 10.9926,64.08986 18.2545,79.68222 8.5478,18.34502 18.5261,24.03143 24.4118,32.59727 0,0 8.4571,16.29863 8.4571,16.29863 4.5274,6.91787 20.482,23.16218 26.9652,28.57694 0,0 21.7315,13.41921 21.7315,13.41921 14.9042,9.16346 41.2175,23.30705 57.9507,27.52659 0,0 19.9206,2.29992 19.9206,2.29992 16.3167,3.27784 32.217,7.96822 48.8959,7.85956 0,0 47.085,0 47.085,0 0,0 32.5972,-1.81096 32.5972,-1.81096 0,0 27.1644,1.79285 27.1644,1.79285 11.3366,-0.27164 21.6048,-3.13296 32.5973,-4.94392 5.3061,-0.88737 8.8013,0 14.4876,-1.7023 16.0089,-4.81715 23.3976,-12.42318 30.7864,-15.70102 7.9138,-3.49515 15.9364,1.35822 32.5791,-10.08704 9.0186,-6.19348 32.3075,-40.22141 35.9476,-50.85175 1.9558,-5.68641 0.091,-8.33041 2.2999,-14.48767 3.0786,-8.63828 17.2041,-30.3879 22.7275,-39.84111 0,0 17.9104,-28.97535 17.9104,-28.97535 0,0 18.7616,-34.37202 18.7616,-34.37202 6.4107,-9.12723 12.2058,-9.47131 15.864,-16.4254 3.966,-7.51548 -1.4307,-10.05082 6.7367,-27.07384 0,0 7.9682,-14.48768 7.9682,-14.48768 0,0 7.1896,-18.10959 7.1896,-18.10959 2.5172,-5.16124 8.2217,-14.74121 8.8374,-19.92056 1.1591,-9.67052 -7.8957,-33.0319 -9.6343,-43.46303 0,0 -1.2676,-23.54247 -1.2676,-23.54247 0,0 -5.1794,-16.29864 -5.1794,-16.29864 0,0 -3.9841,-21.73151 -3.9841,-21.73151 0,0 -15.9908,-43.42681 -15.9908,-43.42681 0,0 -6.4651,-9.59809 -6.4651,-9.59809 2.0102,3.78491 -10.9925,-29.46431 -9.8335,-24.84636 -1.5212,-6.10293 0.6701,-18.70721 -11.065,-30.04382 0,0 -11.9885,-8.47529 -11.9885,-8.47529 0,0 -14.4877,-12.11532 -14.4877,-12.11532 -17.0592,-12.16965 -64.9048,-35.94755 -85.1151,-42.79297 0,0 -23.5425,-6.48324 -23.5425,-6.48324 0,0 -12.6767,-5.37855 -12.6767,-5.37855 0,0 -27.1643,-7.84144 -27.1643,-7.84144 0,0 -18.1096,-1.95583 -18.1096,-1.95583 0,0 -28.9754,-8.89181 -28.9754,-8.89181 0,0 -19.9205,-2.86132 -19.9205,-2.86132 -20.0655,-3.64003 -6.4652,-5.30611 -36.2192,-5.36044 -24.2126,-0.0362 -23.0717,-8.62017 -36.3822,-9.12724 0,0 -45.111,2.42669 -45.111,2.42669 -11.8256,1.82907 -9.3446,4.78093 -25.3535,4.88959 -5.5415,0.0362 -14.9041,-0.45274 -19.9205,0.97792 -5.1431,1.48499 -11.3004,5.74074 -19.9206,7.40682 0,0 -18.1096,0.90548 -18.1096,0.90548 0,0 -14.4876,3.27784 -14.4876,3.27784 0,0 -30.7863,0 -30.7863,0 -14.3247,0.3803 -11.6445,4.23765 -21.7316,6.80921 -9.8878,2.53534 -25.8424,2.4629 -36.2191,2.02827 0,0 -16.2987,0 -16.2987,0 0,0 -43.463,12.27829 -43.463,12.27829 0,0 -14.4877,5.61398 -14.4877,5.61398 0,0 -18.1096,3.35027 -18.1096,3.35027 0,0 -18.10958,5.92184 -18.10958,5.92184 0,0 -32.5973,13.07513 -32.5973,13.07513 -5.288,1.55742 -7.3524,0.0543 -14.4876,2.73455 -12.8941,4.85337 -24.3031,13.07512 -36.2192,19.70324 0,0 -19.9206,8.54772 -19.9206,8.54772 0,0 -21.7315,10.92009 -21.7315,10.92009 -14.1798,6.73677 -23.1984,3.53137 -38.0301,11.01063 0,0 -47.085,32.12643 -47.085,32.12643 0,0 3.6219,7.24383 3.6219,7.24383 -18.7072,19.6127 -22.4921,29.0659 -37.5774,48.89591 0,0 -16.2624,19.92056 -16.2624,19.92056 0,0 -17.3309,34.40823 -17.3309,34.40823 0,0 -10.8295,19.92055 -10.8295,19.92055 -2.0826,6.04861 -0.6157,11.39094 -2.1369,18.1096 0,0 -9.5619,30.78631 -9.5619,30.78631 0,0 -7.2257,39.84111 -7.2257,39.84111 0,0 -11.8075,36.21919 -11.8075,36.21919 0,0 -5.9762,30.78631 -5.9762,30.78631 0,0 -13.3286,48.89591 -13.3286,48.89591 0,0 -2.2275,25.35343 -2.2275,25.35343 -1.7929,12.67672 -6.9541,6.4108 -6.9903,28.97535 0,0 0,57.95071 0,57.95071 0.018,15.4837 2.4448,21.8945 4.9801,36.21919 0,0 1.5393,10.86576 1.5393,10.86576 0,0 3.4952,12.67671 3.4952,12.67671 0,0 1.6842,21.73152 1.6842,21.73152 0,0 13.0751,41.65207 13.0751,41.65207 6.0124,13.83573 23.289,29.84461 25.0275,38.03015 1.7023,5.41476 2.1731,16.73326 0,21.73151 -3.1149,5.50532 -10.7028,11.64451 -9.5257,18.10961 1.485,8.1312 21.3512,27.6352 23.8323,34.4082 0,0 4.799,28.9753 4.799,28.9753 0,0 0,14.4877 0,14.4877 0,0 13.1295,38.0302 13.1295,38.0302 3.8573,10.9744 4.4006,19.015 10.4854,30.7863 8.0226,15.5018 28.0699,30.9131 40.6742,42.9378 0,0 34.8247,40.3663 34.8247,40.3663 6.5557,9.6162 10.3406,20.5544 15.6105,30.7863 0,0 10.9201,18.1096 10.9201,18.1096 0,0 7.1352,16.2987 7.1352,16.2987 0,0 5.8494,10.8657 5.8494,10.8657 0,0 4.8171,12.6043 4.8171,12.6043 0,0 16.4978,27.2368 16.4978,27.2368 0,0 17.6026,34.4083 17.6026,34.4083 0,0 40.4387,54.3287 40.4387,54.3287 4.5998,7.751 1.4488,11.7532 6.2116,19.9206 6.0124,10.2863 37.2333,41.3261 47.3566,50.8699 0,0 43.46298,44.622 43.46298,44.622 5.7045,4.1109 11.8075,4.5817 18.1096,7.3525 0,0 34.4082,15.4475 34.4082,15.4475 0,0 10.8658,3.5495 10.8658,3.5495 11.1012,4.6541 13.9263,11.572 21.7315,15.8277 0,0 27.1644,8.0588 27.1644,8.0588 0,0 19.9206,4.5999 19.9206,4.5999 5.6139,1.8471 8.1493,4.2919 14.4876,5.1612 7.2077,0.9779 18.8702,-0.8512 25.3535,1.3039 4.9077,1.6298 17.0773,8.3847 14.1798,14.9766 -2.3724,5.4329 -9.3446,5.1069 -14.1798,4.5274 -16.2625,-1.9015 -22.9268,-7.8414 -41.6521,-7.8777 0,0 -7.2438,0 -7.2438,0 -16.6247,-0.2173 -18.6348,-4.7628 -32.5973,-11.0468 0,0 -16.2986,-7.1352 -16.2986,-7.1352 -5.3605,-2.9519 -12.387,-7.5698 -18.1096,-9.417 0,0 -39.8412,-6.8997 -39.8412,-6.8997 0,0 -30.7863,-16.3168 -30.7863,-16.3168 0,0 -41.57958,-22.7819 -41.57958,-22.7819 0,0 -27.2368,-25.0817 -27.2368,-25.0817 -23.0173,-18.2907 -48.1353,-36.3822 -68.5448,-57.5704 -7.6604,-7.9502 -2.3362,-8.1675 -11.3004,-17.6388 -13.2381,-14.0349 -20.645,-13.6003 -26.7298,-20.3371 0,0 -19.3048,-24.5928 -19.3048,-24.5928 0,0 -12.6405,-13.0027 -12.6405,-13.0027 0,0 -36.5633,-48.8778 -36.5633,-48.8778 0,0 -17.2765,-21.7315 -17.2765,-21.7315 0,0 -25.1181,-39.8411 -25.1181,-39.8411 0,0 -11.2279,-16.2986 -11.2279,-16.2986 0,0 -8.4934,-14.4877 -8.4934,-14.4877 0,0 -7.7509,-10.7028 -7.7509,-10.7028 0,0 -6.8635,-12.9121 -6.8635,-12.9121 0,0 -17.4396,-27.092 -17.4396,-27.092 0,0 -16.0451,-36.2192 -16.0451,-36.2192 0,0 -8.6564,-14.4877 -8.6564,-14.4877 -2.0101,-4.6722 -1.1228,-7.0446 -2.2456,-10.8657 0,0 -13.1838,-32.5248 -13.1838,-32.5248 -3.7486,-7.8053 -6.8273,-6.773 -10.7752,-11.8256 0,0 -9.6705,-17.2222 -9.6705,-17.2222 0,0 -13.9987,-34.4082 -13.9987,-34.4082 -2.2637,-8.5116 0.9598,-9.3084 -3.4952,-21.7316 0,0 -18.6528,-47.08491 -18.6528,-47.08491 0,0 -9.9965,-18.10959 -9.9965,-18.10959 0,0 -8.8013,-25.35344 -8.8013,-25.35344 0,0 -1.8834,-16.29863 -1.8834,-16.29863 -1.5936,-5.41477 -5.3061,-9.29022 -7.5879,-14.41524 0,0 -8.7651,-27.23683 -8.7651,-27.23683 0,0 -12.6767,-27.16439 -12.6767,-27.16439 0,0 -9.1453,-36.21919 -9.1453,-36.21919 -2.1913,-5.83129 -6.8998,-9.27212 -9.7068,-14.48768 0,0 -5.6502,-25.35343 -5.6502,-25.35343 -1.2676,-11.68069 6.7187,-20.59061 10.0146,-31.09418 0,0 1.4488,-14.17981 1.4488,-14.17981 1.8291,-11.15551 4.8172,-18.79776 4.962,-30.78631 0,0 0,-114.09045 0,-114.09045 0.036,-18.20015 2.1007,-11.59014 4.9258,-23.54248 0,0 10.4674,-39.84111 10.4674,-39.84111 0,0 5.5596,-12.67671 5.5596,-12.67671 0,0 1.6299,-16.29864 1.6299,-16.29864 0,0 5.0164,-12.67672 5.0164,-12.67672 0,0 6.7729,-23.54247 6.7729,-23.54247 3.9298,-13.03891 -0.4346,-10.05083 9.2903,-28.97535 0,0 25.4802,-50.70687 25.4802,-50.70687 0,0 24.1944,-39.84111 24.1944,-39.84111 0,0 12.6224,-21.73151 12.6224,-21.73151 0,0 19.7575,-25.35344 19.7575,-25.35344 6.7368,-7.932 12.0067,-10.82953 10.1052,-21.73151 0,0 18.4899,-25.35343 18.4899,-25.35343 z m 361.81158,586.75088 c 7.7871,4.72661 14.7593,4.87148 19.9025,14.48768 4.4911,8.42096 -0.3079,14.21603 13.2743,30.78631 0,0 15.864,17.94661 15.864,17.94661 2.8975,2.96997 8.3847,7.06274 9.2359,11.19173 2.0102,9.8154 -13.9263,22.79998 -22.0575,25.19045 -4.1109,-14.12549 -26.929,-37.99394 -34.7704,-50.70687 -8.6564,-14.03494 -7.3525,-25.06368 -10.6122,-34.40823 -3.8936,-11.17362 -8.8375,-12.67672 -12.5681,-25.35344 13.1113,1.05036 11.6988,4.78094 21.7315,10.86576 z m 380.3015,246.63455 c -14.0349,0.5433 -46.9763,-10.3406 -59.7617,-17.1317 -20.0654,-10.6484 -22.5645,-9.4532 -43.463,-10.5759 -10.6484,-0.5796 -19.178,-4.3826 -28.9753,-7.6604 0,0 -9.0548,-2.7164 -9.0548,-2.7164 0,0 -14.4877,-8.8375 -14.4877,-8.8375 0,0 -10.8658,-4.6361 -10.8658,-4.6361 0,0 -28.9753,-17.6568 -28.9753,-17.6568 0,0 -27.1644,-13.5098 -27.1644,-13.5098 0,0 -36.2192,-20.80793 -36.2192,-20.80793 0,0 -18.1096,-9.48942 -18.1096,-9.48942 -9.9241,-4.11088 -13.8901,-2.46291 -28.9754,-11.60826 -4.6722,-2.82509 -13.2924,-8.63827 -15.2301,-13.87195 -2.0102,-5.43287 5.4691,-22.11181 9.0186,-26.53055 2.1007,-2.60778 5.5596,-6.13916 9.3083,-4.92581 2.8794,0.92359 6.2297,7.64225 8.3123,10.25003 0,0 17.5663,17.85606 17.5663,17.85606 8.6745,7.47926 38.9175,22.79998 50.5439,28.93913 0,0 14.6688,9.92406 14.6688,9.92406 0,0 45.2558,18.12771 45.2558,18.12771 0,0 74.2494,32.14453 74.2494,32.14453 15.9183,5.3786 17.5482,2.2456 25.3534,4.8715 9.6705,3.2416 12.4956,9.6162 25.3534,13.9625 0,0 48.8959,9.254 48.8959,9.254 7.2982,2.7708 9.1635,8.3304 19.9206,13.4192 -4.0203,12.6224 -15.9546,10.7933 -27.1644,11.2098 z M 766.74632,1439.388 c -7.8234,0.036 -24.8283,-13.2563 -24.8283,-21.4961 0,-7.2982 6.8635,-12.7492 13.9625,-11.0107 5.5778,1.3764 12.2964,8.7107 16.2624,12.8397 4.6904,4.8715 6.2116,6.5919 9.091,12.6768 -3.9841,2.4629 -9.8154,6.954 -14.4876,6.9903 z"
     style="fill:#000000;fill-opacity:1;stroke:#000000;stroke-width:1.81118667;stroke-miterlimit:4;stroke-opacity:1;stroke-dasharray:none"
     inkscape:connector-curvature="0" />
</svg>
