<?xml version="1.0" encoding="UTF-8" standalone="no"?>
<!-- Created with Inkscape (http://www.inkscape.org/) -->

<svg
   xmlns:dc="http://purl.org/dc/elements/1.1/"
   xmlns:cc="http://creativecommons.org/ns#"
   xmlns:rdf="http://www.w3.org/1999/02/22-rdf-syntax-ns#"
   xmlns:svg="http://www.w3.org/2000/svg"
   xmlns="http://www.w3.org/2000/svg"
   xmlns:sodipodi="http://sodipodi.sourceforge.net/DTD/sodipodi-0.dtd"
   xmlns:inkscape="http://www.inkscape.org/namespaces/inkscape"
   width="1055.9062"
   height="746.25"
   id="svg2"
   version="1.1"
   inkscape:version="0.48.3.1 r9886"
   sodipodi:docname="Segunda_practica.svg"
   inkscape:export-filename="/home/inaki/Escritorio/Segunda_practica.png"
   inkscape:export-xdpi="90"
   inkscape:export-ydpi="90">
  <title
     id="title3912">Segunda práctica</title>
  <defs
     id="defs4">
    <filter
       id="filter3878"
       inkscape:label="Cross-smooth"
       inkscape:menu="Blurs"
       inkscape:menu-tooltip="Blur inner borders and intersections"
       color-interpolation-filters="sRGB">
      <feGaussianBlur
         id="feGaussianBlur3880"
         stdDeviation="3" />
      <feColorMatrix
         id="feColorMatrix3882"
         result="fbSourceGraphic"
         values="1 0 0 0 0 0 1 0 0 0 0 0 1 0 0 0 0 0 6 -2.5 " />
    </filter>
    <filter
       id="filter3884"
       inkscape:label="Cross-smooth"
       inkscape:menu="Blurs"
       inkscape:menu-tooltip="Blur inner borders and intersections"
       color-interpolation-filters="sRGB">
      <feGaussianBlur
         id="feGaussianBlur3886"
         stdDeviation="3" />
      <feColorMatrix
         id="feColorMatrix3888"
         result="fbSourceGraphic"
         values="1 0 0 0 0 0 1 0 0 0 0 0 1 0 0 0 0 0 6 -2.5 " />
    </filter>
    <filter
       id="filter3890"
       inkscape:label="Cross-smooth"
       inkscape:menu="Blurs"
       inkscape:menu-tooltip="Blur inner borders and intersections"
       color-interpolation-filters="sRGB">
      <feGaussianBlur
         id="feGaussianBlur3892"
         stdDeviation="3" />
      <feColorMatrix
         id="feColorMatrix3894"
         result="fbSourceGraphic"
         values="1 0 0 0 0 0 1 0 0 0 0 0 1 0 0 0 0 0 6 -2.5 " />
    </filter>
    <filter
       id="filter3896"
       inkscape:label="Cross-smooth"
       inkscape:menu="Blurs"
       inkscape:menu-tooltip="Blur inner borders and intersections"
       color-interpolation-filters="sRGB">
      <feGaussianBlur
         id="feGaussianBlur3898"
         stdDeviation="3" />
      <feColorMatrix
         id="feColorMatrix3900"
         result="fbSourceGraphic"
         values="1 0 0 0 0 0 1 0 0 0 0 0 1 0 0 0 0 0 6 -2.5 " />
    </filter>
    <filter
       id="filter3902"
       inkscape:label="Cross-smooth"
       inkscape:menu="Blurs"
       inkscape:menu-tooltip="Blur inner borders and intersections"
       color-interpolation-filters="sRGB">
      <feGaussianBlur
         id="feGaussianBlur3904"
         stdDeviation="3" />
      <feColorMatrix
         id="feColorMatrix3906"
         result="fbSourceGraphic"
         values="1 0 0 0 0 0 1 0 0 0 0 0 1 0 0 0 0 0 6 -2.5 " />
    </filter>
  </defs>
  <sodipodi:namedview
     id="base"
     pagecolor="#ffffff"
     bordercolor="#666666"
     borderopacity="1.0"
     inkscape:pageopacity="0.0"
     inkscape:pageshadow="2"
     inkscape:zoom="0.5"
     inkscape:cx="903.35849"
     inkscape:cy="86.570431"
     inkscape:document-units="px"
     inkscape:current-layer="layer4"
     showgrid="false"
     inkscape:window-width="1024"
     inkscape:window-height="721"
     inkscape:window-x="0"
     inkscape:window-y="25"
     inkscape:window-maximized="1"
     fit-margin-top="0"
     fit-margin-left="0"
     fit-margin-right="0"
     fit-margin-bottom="0" />
  <metadata
     id="metadata7">
    <rdf:RDF>
      <cc:Work
         rdf:about="">
        <dc:format>image/svg+xml</dc:format>
        <dc:type
           rdf:resource="http://purl.org/dc/dcmitype/StillImage" />
        <dc:title>Segunda práctica</dc:title>
        <dc:date>15/10/2012</dc:date>
        <dc:creator>
          <cc:Agent>
            <dc:title>Iñaki García</dc:title>
          </cc:Agent>
        </dc:creator>
        <cc:license
           rdf:resource="http://creativecommons.org/licenses/publicdomain/" />
      </cc:Work>
      <cc:License
         rdf:about="http://creativecommons.org/licenses/publicdomain/">
        <cc:permits
           rdf:resource="http://creativecommons.org/ns#Reproduction" />
        <cc:permits
           rdf:resource="http://creativecommons.org/ns#Distribution" />
        <cc:permits
           rdf:resource="http://creativecommons.org/ns#DerivativeWorks" />
      </cc:License>
    </rdf:RDF>
  </metadata>
  <g
     inkscape:groupmode="layer"
     id="layer4"
     inkscape:label="Luna"
     style="display:inline">
    <path
       style="fill:#225a66;fill-opacity:1;stroke:none;display:inline"
       d="m 0,0 0,746.25 1055.9062,0 0,-746.25 L 0,0 z m 679.53125,284.71875 c 108.08153,0 195.6875,87.60597 195.6875,195.6875 0,108.08153 -87.60597,195.71875 -195.6875,195.71875 -108.08153,0 -195.6875,-87.63722 -195.6875,-195.71875 0,-108.08153 87.60597,-195.6875 195.6875,-195.6875 z"
       id="rect3924"
       inkscape:export-filename="/home/inaki/Escritorio/Segunda_practica_2.png"
       inkscape:export-xdpi="90"
       inkscape:export-ydpi="90"
       inkscape:connector-curvature="0" />
  </g>
  <g
     inkscape:groupmode="layer"
     id="layer2"
     inkscape:label="Piedras"
     style="display:inline">
    <path
       style="fill:#00001f;fill-opacity:1;stroke:none;filter:url(#filter3878)"
       d="m 418.875,494.71875 -9.5,6.03125 -1.71875,8.625 -21.53125,0 -6.90625,72.40625 -100,1.71875 0.875,-12.0625 -4.3125,-11.21875 -9.5,0.875 -0.84375,-7.75 15.5,-8.625 -1.71875,-18.125 -18.96875,-9.46875 -76.71875,3.4375 -8.625,5.1875 0.875,27.59375 6.03125,0 1.71875,4.28125 -12.9375,27.59375 0,25 -34.46875,0 -8.625,14.65625 0,59.5 -12.9375,0 -0.875,-50 c -0.4199,-19.71731 -7.40245,-19.72196 -13.78125,-21.5625 l -46.5625,0.875 -5.15625,9.46875 1.71875,25.875 13.78125,9.46875 0,25.875 -63.78125,0 0,0.59375 -0.96875,0 0.71875,10.125 -0.625,26.34375 0.53125,9.5 0.5,14.71875 1055.625,-0.40625 -1.125,-32.375 0.2813,-27.65625 -7.9688,0.8125 -7.4375,0 -4.1875,-31.84375 0,-48.28125 -6.0312,-4.3125 10.3437,-4.3125 -1.7187,-9.46875 -14.6563,-12.9375 -60.34375,-0.84375 -7.75,10.34375 0,18.09375 -7.78125,1.71875 0.875,51.71875 -1.71875,28.46875 -9.5,0 -6.03125,-60.34375 -18.09375,-23.28125 -16.375,0.84375 9.46875,-6.875 0,-12.09375 -9.46875,-7.75 -80.1875,3.46875 -5.15625,11.1875 6.875,7.75 4.3125,6.0625 -16.375,0 -8.625,12.90625 -4.28125,69.53125 -9.875,-0.0312 -16,-0.53125 4.3125,-59.46875 -0.875,-22.40625 -5.15625,-30.1875 -4.3125,0 0,-10.34375 8.59375,0 -4.28125,-35.34375 -27.59375,-1.71875 0,-12.0625 -90.53125,1.71875 3.46875,41.375 6.875,-1.71875 -2.5625,46.53125 4.28125,50.875 6.0625,5.15625 1.6875,28.03125 -6.28125,-0.0312 -5.75,-0.40625 L 652.5,618 l -12.9375,-12.09375 -13.78125,0 5.15625,-8.625 0,-7.75 L 627.5,583.5 l -166.375,0 -4.3125,-75 -28.46875,0.875 -1.71875,-7.78125 z M 886.09375,601.4375 867,654.0625 l 4.46875,31.78125 -14.4375,0 L 853.84375,660 856.5,654.75 l 0,-48.03125 -7.25,-4.625 z m -345.40625,7.25 41.46875,1.3125 -2,22.375 -1.3125,23.03125 2.65625,6.5625 -0.6875,21.71875 -29.59375,0 z m -233.875,3.25 52.5625,2.59375 -8.59375,66.375 -33.625,1.71875 z m 154.9375,1.34375 13.8125,0 0.65625,60.53125 -7.21875,2.625 0.65625,7.90625 -8.5625,0 z"
       id="path3051"
       inkscape:connector-curvature="0"
       inkscape:export-filename="/home/inaki/Escritorio/Segunda_practica.png"
       inkscape:export-xdpi="90"
       inkscape:export-ydpi="90"
       sodipodi:nodetypes="ccccccccccccccccccccccccccccccccccccccccccccccccccccccccccccccccccccccccccccccccccccccccccccccccccccccccccccccccccccccccccccccccc" />
    <path
       style="opacity:0;fill:none;stroke:#000000;stroke-width:1px;stroke-linecap:butt;stroke-linejoin:miter;stroke-opacity:1"
       d="m 315.13158,628.9629 -6.57895,-71.71052 51.97369,0 -3.28948,47.36842 -5.26315,24.34211 z"
       id="path3821"
       inkscape:connector-curvature="0"
       sodipodi:nodetypes="cccccc" />
  </g>
</svg>
